<?xml version="1.0" encoding="UTF-8"?>
<!DOCTYPE svg PUBLIC "-//W3C//DTD SVG 1.1//EN" "http://www.w3.org/Graphics/SVG/1.1/DTD/svg11.dtd">
<svg xmlns="http://www.w3.org/2000/svg" version="1.1" width="128px" height="128px" style="shape-rendering:geometricPrecision; text-rendering:geometricPrecision; image-rendering:optimizeQuality; fill-rule:evenodd; clip-rule:evenodd" xmlns:xlink="http://www.w3.org/1999/xlink">
<g><path style="opacity:0.804" fill="#000000" d="M 88.5,-0.5 C 100.5,-0.5 112.5,-0.5 124.5,-0.5C 125.5,0.5 126.5,1.5 127.5,2.5C 127.5,10.1667 127.5,17.8333 127.5,25.5C 126.691,26.4687 125.691,27.3021 124.5,28C 121.5,28.3333 118.5,28.6667 115.5,29C 109.085,33.2914 102.585,37.4581 96,41.5C 95.5763,37.2119 96.0763,33.0452 97.5,29C 94.5,28.6667 91.5,28.3333 88.5,28C 87.2986,27.0975 86.4652,25.9308 86,24.5C 85.3333,17.5 85.3333,10.5 86,3.5C 86.6622,2.01608 87.4955,0.682751 88.5,-0.5 Z M 91.5,4.5 C 101.833,4.5 112.167,4.5 122.5,4.5C 122.5,10.8333 122.5,17.1667 122.5,23.5C 119.482,23.3354 116.482,23.502 113.5,24C 110.032,25.9698 106.699,28.1365 103.5,30.5C 102.294,28.5159 102.294,26.5159 103.5,24.5C 99.2873,23.8055 95.1206,23.1388 91,22.5C 90.2124,16.418 90.379,10.418 91.5,4.5 Z"/></g>
<g><path style="opacity:0.772" fill="#000000" d="M -0.5,47.5 C -0.5,46.8333 -0.5,46.1667 -0.5,45.5C 0.530694,44.645 1.69736,43.9783 3,43.5C 4.56482,44.9525 5.89816,46.6191 7,48.5C 19.651,13.9185 44.151,0.251845 80.5,7.5C 80.9899,9.94835 80.1566,11.615 78,12.5C 46.5697,6.46234 24.7363,18.129 12.5,47.5C 14.061,48.3473 15.561,48.0139 17,46.5C 18.5484,47.9137 19.215,49.5804 19,51.5C 15.25,53.9589 11.4166,56.2922 7.5,58.5C 4.57933,54.981 1.91267,51.3143 -0.5,47.5 Z"/></g>
<g><path style="opacity:0.788" fill="#000000" d="M 93.5,7.5 C 102.167,7.5 110.833,7.5 119.5,7.5C 119.5,9.16667 119.5,10.8333 119.5,12.5C 110.833,12.5 102.167,12.5 93.5,12.5C 93.5,10.8333 93.5,9.16667 93.5,7.5 Z"/></g>
<g><path style="opacity:0.758" fill="#000000" d="M 93.5,15.5 C 99.5,15.5 105.5,15.5 111.5,15.5C 111.5,17.1667 111.5,18.8333 111.5,20.5C 105.5,20.5 99.5,20.5 93.5,20.5C 93.5,18.8333 93.5,17.1667 93.5,15.5 Z"/></g>
<g><path style="opacity:0.683" fill="#000000" d="M 114.5,15.5 C 116.167,15.5 117.833,15.5 119.5,15.5C 119.5,17.1667 119.5,18.8333 119.5,20.5C 117.833,20.5 116.167,20.5 114.5,20.5C 114.5,18.8333 114.5,17.1667 114.5,15.5 Z"/></g>
<g><path style="opacity:0.795" fill="#000000" d="M 47.5,127.5 C 43.8333,127.5 40.1667,127.5 36.5,127.5C 23.1667,116.167 10.8333,103.833 -0.5,90.5C -0.5,87.1667 -0.5,83.8333 -0.5,80.5C 2.69678,74.4625 7.19678,69.4625 13,65.5C 18.2893,69.787 23.2893,74.4537 28,79.5C 28.6667,80.5 28.6667,81.5 28,82.5C 25.3167,85.0159 22.8167,87.6826 20.5,90.5C 22.483,92.9837 24.6496,95.3171 27,97.5C 28.2106,94.2409 30.0439,91.4075 32.5,89C 38.9222,86.4827 45.5888,84.816 52.5,84C 47.5949,80.7005 44.2616,76.2005 42.5,70.5C 40.1106,69.3978 38.2773,67.7311 37,65.5C 36.3333,56.8333 36.3333,48.1667 37,39.5C 43.4022,23.1313 55.2355,16.9647 72.5,21C 81.8616,24.3603 87.695,30.8603 90,40.5C 90.6667,51.8333 90.6667,63.1667 90,74.5C 89.5,76.3333 88.3333,77.5 86.5,78C 84.1667,78.3333 81.8333,78.6667 79.5,79C 77.8333,80.6667 76.1667,82.3333 74.5,84C 79.5232,84.8927 84.5232,85.8927 89.5,87C 93.7884,88.5637 96.955,91.3971 99,95.5C 101.017,100.713 102.517,106.046 103.5,111.5C 89.496,111.333 75.496,111.5 61.5,112C 62.5171,113.049 62.6838,114.216 62,115.5C 57.2684,119.742 52.4351,123.742 47.5,127.5 Z M 60.5,24.5 C 73.304,24.3082 81.4706,30.3082 85,42.5C 85.9612,47.4431 85.7945,50.1098 84.5,50.5C 75.9534,51.0589 68.9534,48.0589 63.5,41.5C 57.7932,47.5201 50.7932,50.5201 42.5,50.5C 41.2481,49.6903 41.0815,46.6903 42,41.5C 45.2151,32.4451 51.3817,26.7785 60.5,24.5 Z M 61.5,49.5 C 67.1149,52.4828 73.1149,54.4828 79.5,55.5C 79.9503,61.3285 79.2836,66.9951 77.5,72.5C 72.544,73.4941 67.544,73.8275 62.5,73.5C 62.5,75.1667 62.5,76.8333 62.5,78.5C 65.5184,78.3354 68.5184,78.502 71.5,79C 60.4126,83.8601 52.5793,80.6935 48,69.5C 47.5008,64.8452 47.3342,60.1785 47.5,55.5C 52.9369,55.1104 57.6036,53.1104 61.5,49.5 Z M 84.5,69.5 C 85.7965,70.8488 85.6298,72.1821 84,73.5C 83.4209,72.0715 83.5876,70.7382 84.5,69.5 Z M 12.5,72.5 C 15.6306,75.1288 18.6306,77.9621 21.5,81C 21,81.5 20.5,82 20,82.5C 17.1667,79.6667 14.3333,76.8333 11.5,74C 12.056,73.6174 12.3893,73.1174 12.5,72.5 Z M 7.5,77.5 C 10.6306,80.1288 13.6306,82.9621 16.5,86C 15.3895,88.7372 15.2228,91.5706 16,94.5C 22.1156,101.457 28.9489,107.457 36.5,112.5C 38.0589,111.926 39.5589,111.26 41,110.5C 43.8333,113.333 46.6667,116.167 49.5,119C 45.6733,122.737 41.34,123.404 36.5,121C 26.3333,110.833 16.1667,100.667 6,90.5C 3.74301,85.8054 4.24301,81.4721 7.5,77.5 Z M 59.5,87.5 C 61.6282,86.3709 63.9615,86.2042 66.5,87C 65.3333,88.1667 64.1667,89.3333 63,90.5C 61.9609,89.2899 60.7942,88.2899 59.5,87.5 Z M 48.5,89.5 C 50.8568,89.3367 53.1902,89.5034 55.5,90C 58.0159,92.6833 60.6826,95.1833 63.5,97.5C 66.3174,95.1833 68.9841,92.6833 71.5,90C 79.3458,89.3323 86.5124,91.1656 93,95.5C 94.6738,99.0207 95.8404,102.687 96.5,106.5C 82.8293,106.667 69.1626,106.5 55.5,106C 52.9518,103.115 50.1185,100.615 47,98.5C 43.653,101.344 40.153,104.011 36.5,106.5C 31.0069,103.86 30.1736,100.193 34,95.5C 35.214,93.9512 36.714,92.7845 38.5,92C 42.0382,91.4652 45.3716,90.6319 48.5,89.5 Z M 46.5,105.5 C 49.6306,108.129 52.6306,110.962 55.5,114C 55,114.5 54.5,115 54,115.5C 51.146,113.402 48.4794,111.069 46,108.5C 45.5304,107.423 45.6971,106.423 46.5,105.5 Z"/></g>
<g><path style="opacity:0.774" fill="#000000" d="M 113.5,37.5 C 118.551,39.3507 122.884,42.1841 126.5,46C 124.924,50.2012 122.757,50.3679 120,46.5C 124.536,66.3197 120.703,84.3197 108.5,100.5C 107.167,99.5 105.833,98.5 104.5,97.5C 115.821,82.3967 118.987,65.7301 114,47.5C 112.579,53.1468 110.079,53.8135 106.5,49.5C 108.861,45.4828 111.194,41.4828 113.5,37.5 Z"/></g>
</svg>
