<?xml version="1.0" encoding="UTF-8"?>
<!DOCTYPE svg PUBLIC "-//W3C//DTD SVG 1.1//EN" "http://www.w3.org/Graphics/SVG/1.1/DTD/svg11.dtd">
<svg xmlns="http://www.w3.org/2000/svg" version="1.1" width="256px" height="256px" style="shape-rendering:geometricPrecision; text-rendering:geometricPrecision; image-rendering:optimizeQuality; fill-rule:evenodd; clip-rule:evenodd" xmlns:xlink="http://www.w3.org/1999/xlink">
<g><path style="opacity:0.912" fill="#000000" d="M 111.5,-0.5 C 122.167,-0.5 132.833,-0.5 143.5,-0.5C 193.489,7.98005 228.323,35.6467 248,82.5C 251.314,92.0939 253.814,101.761 255.5,111.5C 255.5,122.167 255.5,132.833 255.5,143.5C 247.02,193.489 219.353,228.323 172.5,248C 162.906,251.314 153.239,253.814 143.5,255.5C 132.833,255.5 122.167,255.5 111.5,255.5C 61.5108,247.02 26.6775,219.353 7,172.5C 3.68594,162.906 1.18594,153.239 -0.5,143.5C -0.5,132.833 -0.5,122.167 -0.5,111.5C 7.98005,61.5108 35.6467,26.6775 82.5,7C 92.0939,3.68594 101.761,1.18594 111.5,-0.5 Z M 120.5,11.5 C 171.017,11.3287 208.184,33.3287 232,77.5C 251.191,122.958 245.524,164.958 215,203.5C 178.259,241.559 134.759,252.059 84.5,235C 38.6457,213.948 14.3124,178.115 11.5,127.5C 13.8177,80.0563 35.8177,45.223 77.5,23C 91.3295,16.7947 105.663,12.9613 120.5,11.5 Z"/></g>
<g><path style="opacity:0.9" fill="#000000" d="M 89.5,80.5 C 103.042,81.244 107.208,87.9107 102,100.5C 96.5493,105.16 90.716,105.66 84.5,102C 78.1111,92.7932 79.7777,85.6266 89.5,80.5 Z"/></g>
<g><path style="opacity:0.954" fill="#000000" d="M 80.5,109.5 C 88.5,109.5 96.5,109.5 104.5,109.5C 104.5,131.167 104.5,152.833 104.5,174.5C 96.5,174.5 88.5,174.5 80.5,174.5C 80.5,152.833 80.5,131.167 80.5,109.5 Z"/></g>
<g><path style="opacity:0.952" fill="#000000" d="M 115.5,109.5 C 123.5,109.5 131.5,109.5 139.5,109.5C 139.336,112.187 139.503,114.854 140,117.5C 147.32,109.795 156.154,107.629 166.5,111C 174.896,115.608 179.396,122.774 180,132.5C 180.5,146.496 180.667,160.496 180.5,174.5C 172.5,174.5 164.5,174.5 156.5,174.5C 156.667,162.495 156.5,150.495 156,138.5C 156.076,129.229 151.91,126.396 143.5,130C 141.683,131.8 140.516,133.966 140,136.5C 139.5,149.162 139.333,161.829 139.5,174.5C 131.5,174.5 123.5,174.5 115.5,174.5C 115.5,152.833 115.5,131.167 115.5,109.5 Z"/></g>
</svg>
