<?xml version="1.0" standalone="no"?>
<!DOCTYPE svg PUBLIC "-//W3C//DTD SVG 20010904//EN"
 "http://www.w3.org/TR/2001/REC-SVG-20010904/DTD/svg10.dtd">
<svg version="1.0" xmlns="http://www.w3.org/2000/svg"
 width="128.000000pt" height="128.000000pt" viewBox="0 0 128.000000 128.000000"
 preserveAspectRatio="xMidYMid meet">

<g transform="translate(0.000000,128.000000) scale(0.100000,-0.100000)"
fill="#000000" stroke="none">
<path d="M485 1225 c-159 -44 -309 -165 -379 -305 -50 -103 -66 -169 -66 -280
0 -172 55 -305 175 -425 118 -117 257 -175 425 -175 166 0 308 59 425 175 115
116 175 259 175 422 0 110 -14 172 -62 272 -72 152 -219 271 -388 316 -68 18
-237 18 -305 0z m270 -30 c220 -46 394 -220 440 -440 27 -130 11 -248 -51
-374 -89 -181 -300 -311 -504 -311 -204 0 -415 130 -504 311 -62 126 -78 244
-51 374 46 218 219 393 435 439 85 19 149 19 235 1z"/>
<path d="M534 968 c-14 -17 -244 -581 -244 -596 0 -9 66 -12 255 -12 140 0
255 2 255 4 0 6 -237 583 -247 601 -8 13 -11 14 -19 3z m70 -360 c42 -103 76
-191 76 -197 0 -7 -55 -11 -165 -11 -110 0 -165 4 -165 11 0 5 37 100 82 211
51 125 84 195 89 186 4 -7 41 -97 83 -200z"/>
<path d="M852 967 c-6 -7 -20 -33 -31 -58 -33 -72 -28 -163 14 -290 39 -113
39 -142 4 -211 -10 -20 -19 -40 -19 -43 0 -3 16 -5 36 -5 31 0 37 4 51 38 32
74 29 132 -12 247 -47 133 -46 195 3 275 18 28 32 53 32 56 0 10 -69 3 -78 -9z"/>
</g>
</svg>
