<svg xmlns="http://www.w3.org/2000/svg" width="170.667" height="170.667" version="1.0" viewBox="0 0 128 128"><path d="M26.4 64.2c-12.7 31-22.9 56.6-22.7 57 .2.5 21.8.8 47.9.8 38.5 0 47.4-.2 47.4-1.3 0-.7-10.3-26.3-22.8-56.8C57.7 19 53 8.4 51.5 8.2c-1.7-.2-5 7.1-25.1 56zm36.2 11.6 15.2 37.7-31 .3c-17.1.1-31.3.1-31.4-.1-.3-.2 19.7-50 30.3-75.5.3-.7.8-1 1.1-.7.3.3 7.4 17.5 15.8 38.3zM107.8 10.2C104 16 101 23.3 99.6 30.3c-2.9 14-1.9 21 6.3 45.2 6.9 20.2 6.6 26.6-1.4 39.9-1.9 3.2-3.5 6-3.5 6.2 0 .2 3.4.4 7.5.4h7.5l1.9-3.8c3.1-6.2 5.1-15.4 5.1-24 0-8.3-.4-9.8-9-33.2-6.6-18-4.4-33.6 6.9-47.8L125 8h-7.9c-7.1 0-8 .2-9.3 2.2z"/></svg>