<?xml version="1.0" standalone="no"?>
<!DOCTYPE svg PUBLIC "-//W3C//DTD SVG 20010904//EN"
 "http://www.w3.org/TR/2001/REC-SVG-20010904/DTD/svg10.dtd">
<svg version="1.0" xmlns="http://www.w3.org/2000/svg"
 width="128.000000pt" height="128.000000pt" viewBox="0 0 128.000000 128.000000"
 preserveAspectRatio="xMidYMid meet">

<g transform="translate(0.000000,128.000000) scale(0.100000,-0.100000)"
fill="#000000" stroke="none">
<path d="M264 638 c-127 -310 -229 -566 -227 -570 2 -5 218 -8 479 -8 385 0
474 2 474 13 0 7 -103 263 -228 568 -185 449 -232 555 -247 557 -17 2 -50 -71
-251 -560z m362 -116 l152 -377 -310 -3 c-171 -1 -313 -1 -314 1 -3 2 197 500
303 755 3 7 8 10 11 7 3 -3 74 -175 158 -383z"/>
<path d="M1078 1178 c-38 -58 -68 -131 -82 -201 -29 -140 -19 -210 63 -452 69
-202 66 -266 -14 -399 -19 -32 -35 -60 -35 -62 0 -2 34 -4 75 -4 l75 0 19 38
c31 62 51 154 51 240 0 83 -4 98 -90 332 -66 180 -44 336 69 478 l41 52 -79 0
c-71 0 -80 -2 -93 -22z"/>
</g>
</svg>
