<svg xmlns="http://www.w3.org/2000/svg" width="256" height="256" style="shape-rendering:geometricPrecision;text-rendering:geometricPrecision;image-rendering:optimizeQuality;fill-rule:evenodd;clip-rule:evenodd"><path d="M111.5-.5h32c62.78 12.447 100.113 50.113 112 113v31c-8.451 49.965-36.117 84.798-83 104.5-9.594 3.314-19.261 5.814-29 7.5h-32c-54.074-9.234-89.908-39.901-107.5-92a739.235 739.235 0 0 1-4.5-20v-31c11.887-62.887 49.22-100.553 112-113Zm2 16c55.613-2.792 95.113 20.874 118.5 71 16.545 49.011 6.045 91.178-31.5 126.5-10.506 8.586-22.172 15.086-35 19.5.167-12.338 0-24.671-.5-37-.373-3.785-1.539-7.285-3.5-10.5 37.516-11.85 53.683-37.35 48.5-76.5-1.987-8.302-5.32-15.968-10-23a76.417 76.417 0 0 1 .5-14.5c-.056-7.175-1.556-14.009-4.5-20.5a17.833 17.833 0 0 0-5.5-4.5 39.094 39.094 0 0 0-16 1 154.295 154.295 0 0 0-21 10.5c-17.341-5.203-34.674-5.203-52 0-9.5-6.668-20-10.668-31.5-12-8.122.45-12.788 4.784-14 13A73.866 73.866 0 0 0 54.5 71c2.454 7.577 1.287 14.41-3.5 20.5-12.582 27.133-9.416 52.133 9.5 75 9.197 9.268 20.197 15.435 33 18.5a63.398 63.398 0 0 0-4 12c-5.487 2.185-10.82 1.851-16-1a86.24 86.24 0 0 1-9.5-12.5c-6.134-7.317-13.967-10.65-23.5-10a43.51 43.51 0 0 0 2 15 19.218 19.218 0 0 1 7 3.5 234.947 234.947 0 0 0 13 16c8.208 5.995 17.208 8.162 27 6.5v18c-37.238-14.077-61.072-40.411-71.5-79C9.222 99.575 27.722 58.075 73.5 29c12.771-6.572 26.104-11.072 40-13.5Zm-42 46a79.72 79.72 0 0 1 24 11.5l4.5.5a283.429 283.429 0 0 1 27-4 444.551 444.551 0 0 0 32.5 3.5 92.855 92.855 0 0 1 23-11.5c1.486 2.783 2.153 5.783 2 9a101.473 101.473 0 0 0-1.5 19c14.96 19.471 16.293 39.804 4 61-13.913 14.703-31.079 22.37-51.5 23a114.251 114.251 0 0 0 10.5 17 32.5 32.5 0 0 1 3 7 400.05 400.05 0 0 1 0 40 94.163 94.163 0 0 1-21.5 2 94.163 94.163 0 0 1-21.5-2 400.05 400.05 0 0 1 0-40 105.276 105.276 0 0 1 13-21 4.934 4.934 0 0 0 .5-3c-20.42-.63-37.587-8.297-51.5-23-12.293-21.196-10.96-41.529 4-61 .098-6.356-.402-12.69-1.5-19a81.92 81.92 0 0 1 1-9Z" style="opacity:.929"/></svg>